<svg width="1200" height="760" viewBox="0 0 1200 760" fill="none" xmlns="http://www.w3.org/2000/svg">
  <g filter="url(#shadowSoft)">
    <path d="M94 458C94 390 148 336 216 336C235 336 252 340 268 348C293 286 352 244 420 244C499 244 566 301 585 374C603 368 623 365 644 365C750 365 836 451 836 557C836 663 750 749 644 749H287C180 749 94 663 94 557V458Z" fill="#CBEFC7"/>
    <path d="M120 474C120 411 171 360 234 360C252 360 269 364 284 371C307 315 360 278 421 278C493 278 555 330 573 396C589 390 607 387 626 387C724 387 804 467 804 565C804 663 724 743 626 743H299C200 743 120 663 120 565V474Z" fill="#E7F8DB"/>
    <path d="M213 529C213 506 232 487 255 487C267 487 278 492 286 500C291 477 311 460 335 460C363 460 386 479 390 506C397 503 404 501 412 501C444 501 470 527 470 559C470 591 444 617 412 617H274C240 617 213 590 213 556V529Z" fill="#9AD794"/>
    <path d="M426 566C426 540 448 518 474 518C485 518 496 522 505 529C513 509 532 495 555 495C585 495 610 518 614 548C621 545 628 544 635 544C670 544 698 572 698 607C698 642 670 670 635 670H486C453 670 426 643 426 610V566Z" fill="#9AD794"/>
  </g>

  <g opacity="0.92" stroke="#2F2A4C" stroke-width="9" stroke-linecap="round" stroke-linejoin="round">
    <path d="M121 474C121 412 171 360 234 360C252 360 269 364 284 371C307 315 360 278 421 278C493 278 555 330 573 396C589 390 607 387 626 387C724 387 804 467 804 565C804 663 724 743 626 743H299C200 743 121 663 121 565V474Z"/>
    <path d="M213 529C213 506 232 487 255 487C267 487 278 492 286 500C291 477 311 460 335 460C363 460 386 479 390 506C397 503 404 501 412 501C444 501 470 527 470 559C470 591 444 617 412 617H274C240 617 213 590 213 556V529Z"/>
    <path d="M426 566C426 540 448 518 474 518C485 518 496 522 505 529C513 509 532 495 555 495C585 495 610 518 614 548C621 545 628 544 635 544C670 544 698 572 698 607C698 642 670 670 635 670H486C453 670 426 643 426 610V566Z"/>
  </g>

  <defs>
    <filter id="shadowSoft" x="64" y="214" width="802" height="565" filterUnits="userSpaceOnUse" color-interpolation-filters="sRGB">
      <feDropShadow dx="0" dy="6" stdDeviation="9" flood-color="#B9B0F5" flood-opacity="0.28"/>
    </filter>
  </defs>
</svg>
